<svg width="814" height="192" viewBox="0 0 814 192" fill="none" xmlns="http://www.w3.org/2000/svg">
<rect width="192" height="192" rx="37.5" fill="#3B79A7"/>
<rect x="41.625" y="21" width="108.75" height="150" rx="15" fill="#D9D9D9"/>
<rect x="58.5" y="123" width="75" height="5.625" rx="2.8125" fill="#3B79A7"/>
<circle cx="96" cy="153" r="11.25" fill="#3B79A7"/>
<circle cx="96" cy="72.75" r="34.6875" fill="white" stroke="#3B79A7" stroke-width="5.625"/>
<circle cx="96.1009" cy="72.8509" r="4.60086" fill="#3B79A7"/>
<rect x="75.75" y="59.6095" width="4.875" height="22.5" rx="2.4375" transform="rotate(-50 75.75 59.6095)" fill="#3B79A7"/>
<rect x="108.336" y="59.625" width="4.875" height="16.875" rx="2.4375" transform="rotate(50 108.336 59.625)" fill="#3B79A7"/>
<rect x="93.375" y="43.875" width="4.875" height="7.5" rx="2.4375" fill="#3B79A7"/>
<rect x="93.375" y="93.75" width="4.875" height="7.5" rx="2.4375" fill="#3B79A7"/>
<rect x="68.25" y="75" width="4.875" height="7.5" rx="2.4375" transform="rotate(-90 68.25 75)" fill="#3B79A7"/>
<path d="M165.137 43.9697C166.646 43.0894 169.834 42.1418 173.396 43.2549L173.805 43.3955C175.827 44.1561 177.462 45.7233 178.524 46.9092C179.603 48.1126 180.504 49.3983 181.101 50.374L181.337 50.7725L181.526 51.1006L181.646 51.46C181.871 52.1332 182.087 53.1025 182.151 54.1631C182.21 55.1253 182.163 56.4811 181.629 57.8359L181.516 58.1064C181.342 58.498 181.115 58.8234 181.059 58.9062C180.95 59.0649 180.827 59.234 180.703 59.3984C180.453 59.7314 180.125 60.1495 179.74 60.6299C178.966 61.5963 177.893 62.9004 176.602 64.4512C174.014 67.5575 170.501 71.7114 166.634 76.2549C158.897 85.3448 149.712 96.0296 143.615 103.096L143.39 103.358L143.119 103.574C141.101 105.189 136.778 106.521 132.043 103.938L131.445 103.612L131 103.096L114.5 83.9707L113.973 83.3604L113.743 82.5869C113.372 81.335 113.079 79.4156 113.363 77.417C113.639 75.475 114.544 73.0421 116.902 71.4287C118.769 69.8053 122.527 68.2248 127.049 69.7939L127.518 69.9668L128.336 70.2861L128.927 70.9365L135.45 78.1123L164.186 44.7607L164.595 44.2861L165.137 43.9697Z" fill="white" stroke="#3B79A7" stroke-width="7.5"/>
<path d="M311.2 71.68L310.84 145H295.48L255.88 80.44C255.56 103.88 255.36 121.56 255.28 133.48L263.56 134.56C263.56 137.84 262.64 141.32 260.8 145H231.64L230.56 138.4C235.04 136.56 238.4 135.4 240.64 134.92C240.64 134.68 240.28 113.52 239.56 71.44L229.6 68.32L230.56 61H261.76L296.68 123.64L294.88 71.44L284.92 68.32L285.88 61H317.08C317 61 317 61.08 317.08 61.24C317.24 61.4 317.4 61.76 317.56 62.32C317.8 62.8 318.04 63.4 318.28 64.12C318.76 65.4 319.08 67.52 319.24 70.48C315.16 71.12 312.48 71.52 311.2 71.68ZM346.499 146.44C339.699 146.44 334.419 145.04 330.659 142.24C326.979 139.44 325.139 134.72 325.139 128.08C325.139 121.76 327.339 116.6 331.739 112.6C334.299 110.28 337.859 108.92 342.419 108.52C346.979 108.12 353.259 107.92 361.259 107.92V106C361.259 101.12 360.459 97.56 358.859 95.32C357.339 93 354.619 91.84 350.699 91.84C348.699 91.84 346.899 92.24 345.299 93.04L342.419 103.48L333.539 103.24C331.539 100.2 330.459 95.36 330.299 88.72C331.899 87.92 335.659 86.72 341.579 85.12C347.499 83.44 351.299 82.6 352.979 82.6C361.619 82.6 367.899 84.4 371.819 88C375.739 91.52 377.699 97.16 377.699 104.92C377.699 112.6 377.339 122.76 376.619 135.4C381.179 135.8 384.699 136.48 387.179 137.44C387.259 138.4 387.299 139.56 387.299 140.92L387.179 143.56C381.419 145.48 375.619 146.44 369.779 146.44C368.259 146.44 367.139 146.4 366.419 146.32C365.219 143.92 364.499 141.04 364.259 137.68H363.659C362.139 139.12 359.459 140.96 355.619 143.2C351.859 145.36 348.819 146.44 346.499 146.44ZM340.499 128.8C340.499 131.44 341.299 133.4 342.899 134.68C344.579 135.88 346.459 136.48 348.539 136.48C350.619 136.48 353.099 135.56 355.979 133.72C358.859 131.8 361.179 130.08 362.939 128.56L362.339 117.52C356.019 117.84 351.259 118.44 348.059 119.32C343.019 120.36 340.499 123.52 340.499 128.8ZM336.539 77.2C335.019 75.2 333.739 73.08 332.699 70.84C334.139 68.84 337.779 65.64 343.619 61.24C345.139 60.12 346.619 59.56 348.059 59.56C349.499 59.56 352.019 60.36 355.619 61.96C359.219 63.56 361.699 64.52 363.059 64.84C370.099 61.48 373.659 59.76 373.739 59.68C375.659 62.4 376.979 64.52 377.699 66.04C375.459 69.32 371.739 72.64 366.539 76C364.939 77.12 363.539 77.68 362.339 77.68C360.499 77.12 358.019 76.2 354.899 74.92C351.779 73.56 349.419 72.68 347.819 72.28C346.619 73 344.739 73.88 342.179 74.92C339.619 75.88 337.739 76.64 336.539 77.2ZM420.306 92.2C417.426 92.2 414.146 92.92 410.466 94.36C409.426 95.96 408.426 98.8 407.466 102.88C406.586 106.88 406.146 110.92 406.146 115C406.146 122.52 407.266 127.88 409.506 131.08C411.746 134.2 415.346 135.76 420.306 135.76C425.346 135.76 428.986 134.2 431.226 131.08C433.466 127.88 434.586 122.44 434.586 114.76C434.586 107 433.426 101.32 431.106 97.72C428.866 94.04 425.266 92.2 420.306 92.2ZM420.306 82.6C429.666 82.6 437.186 85.48 442.866 91.24C448.626 96.92 451.506 104.88 451.506 115.12C451.506 125.28 448.666 133.04 442.986 138.4C437.306 143.76 429.746 146.44 420.306 146.44C410.866 146.44 403.306 143.76 397.626 138.4C392.026 133.04 389.226 125.28 389.226 115.12C389.226 104.88 392.066 96.92 397.746 91.24C403.426 85.48 410.946 82.6 420.306 82.6ZM510.528 73C510.528 84.2 510.448 93 510.288 99.4H522.528L523.728 91.12C527.808 91.12 531.768 92.12 535.608 94.12V117.88L527.688 118.48C525.768 115.6 524.648 113.08 524.328 110.92H510.168L509.928 133.48L521.808 134.8C521.808 137.92 520.888 141.32 519.048 145H486.288L485.208 138.4C490.408 136.4 493.768 135.24 495.288 134.92C495.208 130.2 495.128 123.56 495.048 115C494.728 95.8 494.448 81.28 494.208 71.44L484.248 68.32L485.208 61H544.128C544.368 63.16 544.488 65.92 544.488 69.28C544.488 72.56 543.888 77.08 542.688 82.84C540.928 83.4 538.248 83.68 534.648 83.68L532.008 83.56H531.408L528.648 73H510.528ZM573.608 146.44C566.808 146.44 561.528 145.04 557.768 142.24C554.088 139.44 552.248 134.72 552.248 128.08C552.248 121.76 554.448 116.6 558.848 112.6C561.408 110.28 564.968 108.92 569.528 108.52C574.088 108.12 580.368 107.92 588.368 107.92V106C588.368 101.12 587.568 97.56 585.968 95.32C584.448 93 581.728 91.84 577.808 91.84C575.808 91.84 574.008 92.24 572.408 93.04L569.528 103.48L560.648 103.24C558.648 100.2 557.568 95.36 557.408 88.72C559.008 87.92 562.768 86.72 568.688 85.12C574.608 83.44 578.408 82.6 580.088 82.6C588.728 82.6 595.008 84.4 598.928 88C602.848 91.52 604.808 97.16 604.808 104.92C604.808 112.6 604.448 122.76 603.728 135.4C608.288 135.8 611.808 136.48 614.288 137.44C614.368 138.4 614.408 139.56 614.408 140.92L614.288 143.56C608.528 145.48 602.728 146.44 596.888 146.44C595.368 146.44 594.248 146.4 593.528 146.32C592.328 143.92 591.608 141.04 591.368 137.68H590.768C589.248 139.12 586.568 140.96 582.728 143.2C578.968 145.36 575.928 146.44 573.608 146.44ZM567.608 128.8C567.608 131.44 568.408 133.4 570.008 134.68C571.688 135.88 573.568 136.48 575.648 136.48C577.728 136.48 580.208 135.56 583.088 133.72C585.968 131.8 588.288 130.08 590.048 128.56L589.448 117.52C583.128 117.84 578.368 118.44 575.168 119.32C570.128 120.36 567.608 123.52 567.608 128.8ZM639.376 55.84C640.896 55.84 641.856 55.88 642.256 55.96C642.256 60.12 641.736 63.76 640.696 66.88C640.616 71.84 640.496 78.84 640.336 87.88C640.016 107.72 639.776 122.92 639.616 133.48L648.976 134.56C648.976 137.84 648.056 141.32 646.216 145H616.336L615.256 138.4C620.216 136.56 623.816 135.36 626.056 134.8L623.776 68.2C620.016 67.8 616.856 67.2 614.296 66.4C614.296 63.44 614.576 60.56 615.136 57.76C619.856 56.48 627.936 55.84 639.376 55.84ZM665.646 146.44L663.006 146.32C662.526 145.44 661.886 143.8 661.086 141.4C660.286 139 659.846 137.2 659.766 136C659.366 128.08 658.926 114.36 658.446 94.84H650.046L650.406 88C652.246 86.72 654.446 85.56 657.006 84.52L666.726 69.16C669.846 69.48 672.286 70.32 674.046 71.68L673.926 83.08C678.966 83.24 683.646 83.72 687.966 84.52C687.966 87.72 686.966 91.16 684.966 94.84H673.806C673.486 111.64 673.286 124.24 673.206 132.64C676.406 132.96 680.766 133.88 686.286 135.4L686.166 141.64C684.806 142.52 681.766 143.56 677.046 144.76C672.406 145.88 668.606 146.44 665.646 146.44ZM724.765 134.68C727.485 134.68 733.005 132.8 741.325 129.04C743.085 131.6 744.405 134.56 745.285 137.92C740.885 140.64 736.565 142.76 732.325 144.28C728.165 145.72 725.205 146.44 723.445 146.44C713.765 146.44 706.405 143.76 701.365 138.4C696.405 133.04 693.925 125.44 693.925 115.6C693.925 105.68 696.405 97.72 701.365 91.72C706.325 85.64 713.685 82.6 723.445 82.6C731.205 82.6 737.125 85.12 741.205 90.16C745.285 95.2 747.325 101.76 747.325 109.84C747.325 111.52 746.365 113.44 744.445 115.6L709.885 115C710.045 121.4 711.245 126.28 713.485 129.64C715.725 133 719.485 134.68 724.765 134.68ZM722.365 92.56C719.325 92.56 716.485 93.16 713.845 94.36C712.005 98.2 710.845 101.76 710.365 105.04C716.605 104.8 723.685 104.64 731.605 104.56C731.205 96.56 728.125 92.56 722.365 92.56ZM779.211 83.56C780.731 83.56 781.691 83.6 782.091 83.68C782.091 87.6 781.411 91.24 780.051 94.6C779.731 111.88 779.531 124.84 779.451 133.48L788.811 134.56C788.811 137.84 787.891 141.32 786.051 145H756.171L755.091 138.4C760.051 136.56 763.651 135.36 765.891 134.8L764.571 95.92C759.851 95.44 756.371 94.84 754.131 94.12C754.131 92.12 754.411 89.24 754.971 85.48C759.691 84.2 767.771 83.56 779.211 83.56ZM779.211 60.88C779.931 64.48 780.291 67.24 780.291 69.16C780.291 71 780.131 73.08 779.811 75.4C776.611 76.12 773.891 76.48 771.651 76.48C769.491 76.48 766.851 76.36 763.731 76.12C763.011 72.52 762.651 69.8 762.651 67.96C762.651 66.04 762.811 63.92 763.131 61.6C766.331 60.88 769.011 60.52 771.171 60.52C773.411 60.52 776.091 60.64 779.211 60.88Z" fill="white"/>
</svg>
